<?xml version="1.0" encoding="utf-8"?>
<!-- Generator: Adobe Illustrator 27.1.1, SVG Export Plug-In . SVG Version: 6.00 Build 0)  -->
<svg version="1.1" id="Layer_1" xmlns="http://www.w3.org/2000/svg" xmlns:xlink="http://www.w3.org/1999/xlink" x="0px" y="0px"
	 viewBox="0 0 834.54 844.95" style="enable-background:new 0 0 834.54 844.95;" xml:space="preserve">
<style type="text/css">
	.st0{fill:#528AC8;}
	.st1{fill:#7CC7B9;}
</style>
<g>
	<g>
		<path class="st0" d="M567.24,184.89c-4.66-26.53-8.33-53.07-11.73-79.61l-1.24-9.95l-0.61-4.98l-0.15-1.24
			c-0.05-0.41-0.09-0.87-0.17-1.14l-0.4-1.87c-1.05-4.94-2.94-9.5-5.5-13.49c-2.59-3.98-5.77-7.44-9.44-10.1
			c-3.67-2.65-7.66-4.62-11.77-5.72c-4.11-1.11-8.25-1.48-12.29-1.09l-18.57,1.7l-19.91,1.74c-6.64,0.57-13.27,1.13-19.91,1.64
			c-26.55,2.14-53.09,4-79.64,5.64c-13.27,0.85-26.55,1.58-39.82,2.32L331.11,69l-2.49,0.13L328,69.16l-0.3,0.02l-0.12,0.03
			l-0.46,0.11c-0.31,0.07-0.61,0.12-0.92,0.16c-0.31,0.04-0.62,0.05-0.9,0.19c-0.57,0.22-1.16,0.31-1.73,0.5
			c-2.25,0.74-4.23,2.03-5.99,3.48c-1.76,1.47-3.23,3.26-4.3,5.19c-1.06,1.94-1.77,3.95-2.1,5.99c-0.21,1.01-0.19,2.06-0.22,3.09
			c0.04,0.27,0.06,0.53,0.07,0.79l0.01,0.39l0,0.2l0,0.1l0.01,0.27l0.19,4.98l0.64,19.91c0.87,26.55,1.47,53.11,1.97,79.66
			c0.15,6.64,0.21,13.28,0.31,19.92l0,0.31l-0.01,0.53l-0.03,1.08l-0.07,2.16l-0.2,4.31c-0.04,1.44-0.24,2.87-0.43,4.3
			c-0.19,1.43-0.4,2.87-0.61,4.3c-0.36,2.87-1.15,5.68-1.83,8.5c-0.38,1.4-0.67,2.83-1.17,4.19c-0.46,1.37-0.94,2.75-1.43,4.11
			c-7.94,21.87-24.06,40.34-44.53,51.3c-2.59,1.31-5.19,2.61-7.86,3.76c-2.71,1.06-5.44,2.06-8.18,3.01
			c-2.79,0.8-5.61,1.54-8.43,2.22c-2.83,0.62-5.71,1.01-8.58,1.44c-1.43,0.24-2.87,0.33-4.31,0.42l-4.32,0.23
			c-3.42,0.17-4.38,0.09-6.18,0.11l-9.96,0.02l-39.84-0.2c-13.28-0.16-26.56-0.25-39.84-0.47l-36.93-0.65
			c-1.97-0.01-3.87,0.3-5.74,0.98c-1.87,0.67-3.71,1.68-5.33,3.05c-1.63,1.36-3.01,3.05-4.09,4.91c-1.05,1.88-1.77,3.95-2.1,6.26
			l-0.09,0.43l-0.05,0.22c-0.01,0.04-0.02,0.06-0.03,0.13l-0.01,0.31l-0.09,2.49l-0.2,4.98l-0.41,9.96l-0.83,19.92
			c-0.63,13.28-1.21,26.56-1.95,39.84c-0.67,13.28-1.48,26.56-2.26,39.85c-0.86,13.28-1.68,26.56-2.65,39.85
			c-0.46,6.64-0.94,13.28-1.46,19.92l-1.26,16.88c-0.1,3.81,0.52,7.7,1.89,11.48c1.37,3.78,3.52,7.4,6.3,10.63
			c2.77,3.24,6.23,6.01,10.15,8.15l1.48,0.83c0.51,0.23,1.04,0.42,1.56,0.65l1.58,0.68c0.52,0.27,1.09,0.34,1.63,0.53l1.66,0.51
			c0.28,0.08,0.56,0.19,0.84,0.26l0.86,0.16l1.74,0.35l0.88,0.19c0.16,0.03,0.25,0.07,0.48,0.09l0.62,0.07
			c13.28,1.37,26.57,2.85,39.85,4.41c26.57,3.17,53.14,6.61,79.72,11.05c-26.53,4.69-53.07,8.37-79.61,11.79
			c-13.27,1.68-26.54,3.28-39.81,4.78l-0.62,0.07c-0.19,0.03-0.51,0.03-0.76,0.05l-1.61,0.07l-3.24,0.12l-1.63,0.04
			c-0.54,0-1.08-0.05-1.62-0.08l-3.26-0.22c-1.09-0.1-2.19-0.11-3.27-0.31l-3.25-0.54c-1.08-0.19-2.18-0.37-3.26-0.6l-3.21-0.86
			c-8.56-2.34-16.76-6.37-24.06-11.76c-7.31-5.4-13.66-12.25-18.67-20.12c-5.02-7.87-8.5-16.86-10.31-26.2l-0.37-1.75
			c-0.12-0.59-0.17-1.18-0.25-1.76l-0.42-3.55l-0.19-1.78l-0.15-1.61l-0.21-2.49l-0.85-9.95c-0.58-6.64-1.12-13.27-1.64-19.91
			c-1.09-13.27-2.04-26.55-3.02-39.82c-0.9-13.27-1.84-26.55-2.63-39.82c-0.86-13.27-1.57-26.55-2.32-39.82l-1.02-19.91l-0.5-9.96
			l-0.24-4.98l-0.11-2.49L0,325.41l0-0.5l0.01-1.03l0.03-2.06c0.09-10.95,2.2-22.07,6.28-32.45c4.06-10.39,10.17-19.94,17.71-28.17
			c7.56-8.22,16.64-15.11,26.76-20.14c10.11-5.03,21.23-8.19,32.49-9.28l4.23-0.3c1.35-0.09,3.08-0.18,3.65-0.19l4.98-0.16
			l9.96-0.27l19.91-0.52c13.28-0.34,26.55-0.55,39.83-0.84l39.83-0.57l9.96-0.08c1.51-0.02,3.88-0.01,3.77-0.1
			c0.22-0.03,0.43-0.04,0.65-0.04c0.22,0.01,0.44,0.03,0.64-0.06c0.4-0.13,0.83-0.11,1.24-0.21c0.39-0.16,0.78-0.26,1.2-0.32
			c0.37-0.21,0.75-0.36,1.15-0.45c0.37-0.19,0.71-0.43,1.12-0.55c1.48-0.78,2.85-1.86,3.99-3.14c1.15-1.28,2.01-2.76,2.64-4.29
			c0.07-0.19,0.16-0.38,0.26-0.57c0.13-0.18,0.09-0.41,0.16-0.6c0.06-0.41,0.35-0.77,0.32-1.22c0.02-0.21,0.06-0.42,0.11-0.63
			c0.05-0.21,0.14-0.41,0.1-0.64c0-0.22,0.01-0.44,0.03-0.66l0.05-0.33l0.03-0.17l0.02-0.09l0-0.31c0.04-6.64,0.04-13.28,0.13-19.92
			c0.25-26.56,0.61-53.12,1.23-79.67l0.46-19.92l0.14-4.98l0.09-1.93l0.12-2.09l0.3-4.18c0.62-5.56,1.61-11.11,3.22-16.49
			c3.13-10.77,8.25-20.92,14.99-29.72c6.72-8.81,15-16.34,24.34-22.16c9.33-5.81,19.76-9.9,30.51-11.89c2.68-0.49,5.4-0.8,8.09-1.13
			c1.35-0.19,2.7-0.23,4.05-0.28l4.05-0.11L326.85,0l0.51,0l0.32,0.01l0.62,0.03l2.49,0.1l4.98,0.23
			c13.28,0.61,26.56,1.22,39.84,1.95c26.56,1.4,53.13,3.01,79.69,4.9c6.64,0.45,13.28,0.94,19.92,1.45l19.92,1.55l9.96,0.81
			l4.98,0.41l2.85,0.26l3.47,0.38c9.2,1.14,18.17,3.92,26.18,8.23c8.01,4.3,15.13,9.98,20.88,16.7c5.77,6.7,10.19,14.4,13.03,22.53
			c2.86,8.12,4.13,16.67,3.82,24.98l-0.13,3.11c-0.01,0.56-0.07,0.92-0.11,1.35l-0.14,1.25l-0.56,4.98l-1.15,9.96
			C575.07,131.74,571.65,158.31,567.24,184.89z"/>
	</g>
	<g>
		<path class="st0" d="M447.69,378.2c-3.65,1.94-7.32,3.78-10.91,5.78c-3.63,1.91-7.2,3.93-10.75,5.94
			c-7.09,4.05-14.06,8.24-20.82,12.66c-6.79,4.37-13.36,9.01-19.75,13.79c-3.2,2.38-6.3,4.88-9.4,7.34c-3.04,2.55-6.08,5.06-9,7.7
			c-5.88,5.21-11.5,10.64-16.76,16.32c-5.22,5.67-10.12,11.41-14.45,17.52l-1.65,2.26c-0.54,0.76-1.03,1.55-1.55,2.33
			c-1.01,1.57-2.07,3.08-3.06,4.65l-2.85,4.76c-0.49,0.78-0.93,1.59-1.36,2.41l-1.3,2.43l-1.3,2.42c-0.42,0.82-0.79,1.66-1.19,2.48
			c-0.78,1.66-1.63,3.27-2.36,4.95l-2.16,5.04c-0.71,1.68-1.3,3.42-1.96,5.12c-2.49,6.87-4.71,13.82-6.34,21.02
			c-1.66,7.18-3.11,14.41-4.06,21.84l-0.39,2.77l-0.31,2.8l-0.62,5.61c-0.34,3.89-0.75,7.76-1.03,11.64
			c-0.24,3.88-0.6,7.74-0.74,11.62l-0.3,5.8c-0.1,1.93-0.13,3.87-0.2,5.8c-0.47,15.47-0.24,30.93,0.58,46.66
			c0.35,7.84,0.85,15.79,1.38,23.77l1.72,24.22c0.57,8.13,1.2,16.35,1.7,24.61l1.62,23.89l0.5,5.79l0.26,2.67l0.13,1.28l0.15,1.2
			c0.39,3.17,0.87,5.78,1.43,7.77c0.56,2,1.15,3.36,1.76,4.34c0.18,0.22,0.3,0.48,0.46,0.69c0.18,0.19,0.29,0.43,0.48,0.62
			c0.09,0.09,0.18,0.19,0.26,0.29c0.08,0.1,0.13,0.2,0.27,0.33c0.24,0.24,0.44,0.51,0.67,0.76c1.87,1.98,4.29,3.58,6.88,4.59
			c2.6,1,5.3,1.43,7.74,1.22l23.77-0.75l24.51-0.66c32.68-0.89,65.37-1.53,98.05-2.06l24.51-0.33l12.26-0.15l1.48-0.02
			c0.14-0.03,0.27-0.05,0.41-0.07c0.27-0.04,0.54-0.06,0.81-0.05c0.28,0.05,0.52-0.1,0.78-0.14c0.25-0.06,0.51-0.09,0.77-0.11
			c2-0.46,3.86-1.38,5.53-2.66c1.64-1.29,3.13-2.92,3.98-4.8c0.9-1.85,1.44-3.76,1.52-5.93c0.02-0.13,0.04-0.27,0.06-0.4l0-1.47
			l-0.01-3.06l-0.01-6.13l-0.03-12.26l0.15-49.03l0.42-49.03c0.05-2.21-0.01-3.43,0.2-7.58c0.09-1.75,0.2-3.5,0.32-5.24
			c0.13-1.74,0.46-3.49,0.71-5.23c0.28-1.74,0.55-3.48,0.89-5.2c0.41-1.71,0.85-3.42,1.3-5.12c0.83-3.43,2.08-6.73,3.33-10.02
			c0.32-0.82,0.63-1.64,0.97-2.45l1.12-2.38c0.76-1.59,1.54-3.16,2.33-4.73c0.38-0.79,0.83-1.55,1.28-2.29l1.36-2.25
			c0.92-1.49,1.83-2.99,2.82-4.43c1.03-1.41,2.08-2.81,3.15-4.19c1.07-1.38,2.12-2.78,3.32-4.05c2.36-2.57,4.66-5.19,7.31-7.46
			c10.27-9.4,22.64-16.49,35.97-20.56c3.36-0.88,6.73-1.8,10.15-2.4c1.71-0.27,3.43-0.52,5.15-0.75l2.58-0.33
			c0.86-0.09,1.72-0.11,2.58-0.16c1.72-0.09,3.44-0.15,5.16-0.2l1.29-0.03l0.64-0.01l0.41,0.01l1.53,0.03l6.13,0.14
			c16.35,0.34,32.69,0.81,49.04,1.26c16.35,0.46,32.69,1.02,49.04,1.57l12.26,0.46l6.13,0.23l3.06,0.11l0.77,0.03l0.38,0.01l0.15,0
			l0.61,0c3.27,0.18,6.52-0.24,9.69-1.45l0.31-0.09l0.28-0.15l0.57-0.29c0.38-0.19,0.78-0.35,1.18-0.52
			c0.35-0.24,0.72-0.47,1.09-0.69c0.37-0.23,0.8-0.39,1.11-0.69c0.65-0.57,1.48-0.97,2.08-1.63c0.33-0.3,0.67-0.58,1.02-0.87
			c0.33-0.3,0.59-0.66,0.91-0.98c2.43-2.62,4.43-5.77,5.47-9.36c0.1-0.46,0.22-0.91,0.35-1.36l0.21-0.68
			c0.08-0.23,0.07-0.47,0.11-0.71c0.06-0.48,0.14-0.95,0.24-1.43l0.07-0.36c0.02-0.15,0.06-0.17,0.07-0.48l0.08-1.53l0.63-12.26
			l1.34-24.52c1.85-32.7,3.94-65.39,6.35-98.09c1.21-16.35,2.48-32.7,3.85-49.05l0.26-3.07l0.06-0.77c0.02-0.25,0.05-0.54,0.05-0.69
			l0.06-1.1l0.16-2.23l0.04-0.56l-0.03-0.55l-0.05-1.12c-0.03-0.75-0.05-1.5-0.06-2.26l-0.3-2.24c-0.12-0.74-0.13-1.53-0.33-2.26
			l-0.53-2.23l-0.25-1.13c-0.1-0.37-0.25-0.73-0.37-1.09l-0.75-2.21c-0.21-0.77-0.61-1.43-0.92-2.16l-0.96-2.17l-1.19-2.06
			c-0.42-0.68-0.74-1.44-1.25-2.06l-1.4-1.97c-0.24-0.33-0.46-0.68-0.71-0.99l-0.8-0.91c-4.19-5-9.6-9.2-15.86-12.11
			c-0.79-0.35-1.6-0.63-2.4-0.95c-0.81-0.3-1.61-0.69-2.45-0.92l-2.53-0.7c-0.85-0.24-1.7-0.53-2.58-0.63l-2.64-0.46l-1.34-0.23
			l-1.53-0.16l-6.13-0.67c-16.35-1.85-32.7-3.68-49.06-5.96c16.33-2.43,32.67-4.41,49-6.41l6.13-0.72l1.53-0.18l1.72-0.1l3.49-0.18
			c1.17-0.1,2.33-0.01,3.51,0.04l3.53,0.2c1.18,0.08,2.34,0.32,3.51,0.48c1.17,0.19,2.36,0.35,3.53,0.59
			c9.34,2.01,18.35,6.27,26.14,12.37l1.47,1.14c0.48,0.39,0.92,0.83,1.38,1.24l2.74,2.55c0.95,0.83,1.71,1.81,2.57,2.73l2.5,2.83
			l2.24,3.05c0.72,1.04,1.53,2.03,2.14,3.15l1.93,3.3c0.31,0.56,0.65,1.1,0.94,1.67l0.81,1.74l1.6,3.52
			c0.55,1.17,0.89,2.42,1.34,3.63c0.42,1.23,0.85,2.45,1.23,3.7l0.9,3.79l0.43,1.91l0.21,0.96l0.13,0.97l0.5,3.89l0.23,1.96
			l0.16,1.61l0.29,3.06c1.52,16.34,2.94,32.67,4.3,49.01c2.71,32.67,5.1,65.35,7.26,98.03l1.57,24.51l0.75,12.25l0.09,1.53
			c0.02,0.19,0.02,0.68,0.02,1.05l0,1.17c0,1.56-0.01,3.12-0.04,4.69c-0.03,0.78,0,1.57-0.09,2.35l-0.23,2.35
			c-0.17,1.57-0.34,3.13-0.54,4.7c-3.76,25.09-19.57,48.29-42.23,61.06c-11.29,6.4-24.2,10.32-37.25,11.14l-2.45,0.17l-1,0.06
			l-0.77,0.04l-3.06,0.14l-6.13,0.28l-12.26,0.57c-16.34,0.7-32.68,1.41-49.02,2.02c-16.34,0.6-32.68,1.23-49.02,1.71l-6.13,0.2
			l-1.53,0.05l-0.35,0.01l-0.12,0.03l-0.24,0.05c-0.32,0.07-0.64,0.11-0.96,0.14c-0.16,0.02-0.32,0-0.48,0.04
			c-0.15,0.05-0.3,0.1-0.45,0.15c-0.3,0.09-0.6,0.16-0.91,0.21c-0.08,0.01-0.15,0.02-0.23,0.04l-0.21,0.1
			c-0.14,0.06-0.28,0.12-0.43,0.18c-0.29,0.11-0.58,0.19-0.87,0.25c-2.23,0.95-4.25,2.38-5.89,4.16c-0.49,0.37-0.74,0.96-1.15,1.39
			c-0.23,0.2-0.34,0.5-0.49,0.75c-0.15,0.26-0.32,0.5-0.5,0.73c-0.14,0.26-0.22,0.55-0.37,0.8c-0.07,0.13-0.14,0.25-0.22,0.38
			c-0.08,0.12-0.17,0.24-0.19,0.39c-0.08,0.28-0.18,0.55-0.3,0.81c-0.06,0.13-0.12,0.26-0.19,0.38c-0.04,0.14-0.05,0.28-0.09,0.42
			c-0.12,0.56-0.4,1.06-0.4,1.64c-0.04,0.28-0.11,0.55-0.2,0.82c-0.01,0.29,0,0.58-0.03,0.86c0,0.29-0.12,0.55-0.09,0.85
			c0.03,0.3,0.05,0.59,0.04,0.88c-0.06-0.07,0.01,2.79,0.05,4.67l0.88,49.03l0.61,49.03l0.09,12.26l0.04,6.13l0.02,3.06l0.01,1.6
			l-0.08,2.66c-0.32,14.17-3.88,28.47-10.4,41.18c-6.46,12.76-15.93,23.83-27.26,32.43c-11.33,8.59-24.65,14.75-38.68,17.52
			c-1.76,0.3-3.52,0.59-5.28,0.85c-1.76,0.24-3.53,0.56-5.29,0.62c-1.77,0.12-3.54,0.21-5.31,0.28l-2.65,0.1l-1.59,0l-12.26-0.03
			l-24.52-0.11c-32.69-0.23-65.38-0.56-98.07-1.15l-24.52-0.43l-25.26-0.59c-6.95-0.21-13.83-1.21-20.45-2.96
			c-6.63-1.75-13-4.27-19.01-7.42c-12.01-6.3-22.62-15.22-30.8-26.14c-1.01-1.37-1.98-2.78-2.94-4.18c-0.96-1.4-1.89-3.01-2.8-4.52
			c-0.91-1.54-1.7-3.14-2.52-4.73c-0.79-1.59-1.48-3.22-2.19-4.83c-2.72-6.5-4.43-13.03-5.49-19.03
			c-1.06-6.02-1.51-11.55-1.73-16.52l-0.08-1.86l-0.05-1.78c-0.04-1.21-0.06-2.32-0.07-3.45l-0.02-6.46l0.38-25.12l0.53-24.41
			c0.31-16.38,0.8-33.08,1.77-50.06c0.5-8.47,1.21-17.03,2.03-25.58c0.48-4.29,0.88-8.56,1.48-12.85l0.85-6.42
			c0.29-2.14,0.64-4.27,0.96-6.41c1.26-8.54,2.87-17.03,4.62-25.45c0.87-4.21,1.87-8.39,2.8-12.58c0.5-2.12,1.07-4.3,1.61-6.44
			l0.83-3.22l0.92-3.22c2.38-8.57,5.28-17.11,8.65-25.49c3.32-8.38,7.28-16.6,11.72-24.52c4.41-7.94,9.45-15.55,14.99-22.71
			l2.08-2.68c0.68-0.9,1.39-1.78,2.14-2.63l4.4-5.13c1.5-1.67,3.06-3.29,4.6-4.92c0.78-0.81,1.53-1.64,2.33-2.42l2.42-2.32
			c1.63-1.53,3.18-3.13,4.87-4.57l5.01-4.37c1.66-1.45,3.45-2.76,5.16-4.14c1.72-1.37,3.45-2.73,5.22-3.97
			c6.96-5.19,14.23-9.84,21.61-14.17c7.39-4.32,14.93-8.27,22.62-11.79c7.68-3.55,15.44-6.79,23.32-9.61
			C415.49,385.89,431.5,381.41,447.69,378.2z"/>
	</g>
	<g>
		<path class="st1" d="M235.88,481.29c-0.95-2.67-1.87-5.36-2.71-8.08c-0.85-2.72-1.59-5.47-2.36-8.23
			c-0.37-1.38-0.71-2.77-1.04-4.17c-0.34-1.39-0.66-2.79-0.95-4.2l-0.89-4.23l-0.78-4.26c-1.99-11.4-2.85-23.15-2.56-35.13
			c0.27-5.98,0.66-12.04,1.65-18.09c0.4-3.04,1.03-6.07,1.65-9.11c0.28-1.53,0.72-3.02,1.09-4.54c0.4-1.51,0.75-3.04,1.2-4.55
			c3.54-12.06,8.85-23.99,16.01-35.02l2.82-4.05c0.95-1.35,1.88-2.72,2.94-3.99c2.07-2.57,4.08-5.23,6.35-7.63l3.37-3.67
			c1.15-1.2,2.36-2.31,3.55-3.48c1.2-1.14,2.39-2.32,3.62-3.43l3.78-3.22c10.19-8.5,21.44-15.55,33.12-21.19
			c1.46-0.71,2.92-1.46,4.39-2.12l4.43-1.91l4.46-1.87c1.48-0.6,2.94-1.09,4.41-1.64c2.94-1.05,5.88-2.2,8.86-3.14l4.46-1.47
			c1.48-0.5,3.04-0.89,4.55-1.34l4.59-1.29l4.56-1.14c3.06-0.79,6.06-1.43,9.09-2.1c6.04-1.3,12-2.32,17.91-3.3
			c23.56-3.74,45.9-5.52,66.08-8.51c2.49-0.39,5-0.77,7.42-1.2l7.01-1.39c1.17-0.24,2.34-0.39,3.5-0.69l3.48-0.83
			c2.31-0.58,4.64-1.04,6.93-1.69c4.58-1.35,9.18-2.54,13.71-4.11l3.41-1.1l1.7-0.56l1.69-0.63l6.74-2.51
			c35.82-13.98,69.53-35.74,101.27-61.68l0.49-0.4c17.33-14.16,42.86-11.59,57.03,5.74c5.09,6.23,8.01,13.47,8.87,20.91l0.31,2.63
			l0.25,2.29l0.43,4.43c0.27,2.92,0.51,5.81,0.73,8.69c0.44,5.75,0.74,11.46,0.96,17.17c0.43,11.41,0.59,22.81,0.29,34.23
			c-0.26,11.42-0.84,22.85-1.89,34.31c-0.5,5.73-1.11,11.46-1.82,17.2c-0.72,5.73-1.6,11.48-2.52,17.22
			c-3.8,22.96-9.57,46-18.26,68.66c-4.48,11.29-9.51,22.53-15.78,33.39c-6.14,10.89-13.42,21.44-21.84,31.27
			c-4.19,4.93-8.78,9.6-13.56,14.07c-2.48,2.18-4.87,4.4-7.47,6.44c-1.29,1.03-2.54,2.09-3.87,3.07l-4,2.92l-1.01,0.73l-1.1,0.74
			l-2.21,1.48c-1.46,0.97-2.99,2.02-4.28,2.67l-8.06,4.42c-2.7,1.53-5.34,2.71-7.99,3.99c-2.65,1.25-5.28,2.56-7.94,3.75
			c-21.39,9.43-43.54,16.26-65.95,20.54c-22.43,4.18-45.16,5.7-67.49,4.54c-22.32-1.23-44.3-5.1-64.9-12.27
			c21.74-1.72,42.7-5,62.88-10.1c20.17-5.05,39.56-11.76,57.96-19.99c18.37-8.32,35.78-18.1,51.83-29.16
			c2.01-1.38,3.94-2.86,5.91-4.27c1.94-1.43,3.98-2.84,5.7-4.3l5.39-4.27c1-0.73,1.55-1.36,2.21-2.01l0.97-0.96l0.49-0.47l0.53-0.56
			c2.88-2.93,5.59-6.04,8.18-9.26c2.52-3.31,4.93-6.72,7.19-10.29c8.95-14.36,15.61-31.04,20.38-48.87
			c4.82-17.85,7.85-36.79,9.72-56.11c0.45-4.84,0.86-9.69,1.14-14.59c0.32-4.88,0.6-9.79,0.76-14.71c0.19-4.92,0.27-9.86,0.33-14.81
			c0.07-4.95,0.08-9.9,0-14.87c-0.18-9.93-0.47-19.88-1.08-29.78c-0.31-4.95-0.68-9.89-1.06-14.78c-0.2-2.44-0.42-4.87-0.66-7.26
			l-0.37-3.53l-0.36-3.04l66.39,26.24c-18.49,15.15-38.16,29.37-59.46,41.68c-5.24,3.18-10.77,5.98-16.2,8.91
			c-2.75,1.42-5.56,2.76-8.33,4.14l-4.18,2.05l-4.26,1.93l-8.57,3.75l-8.74,3.46c-1.46,0.56-2.9,1.17-4.38,1.69l-4.45,1.57
			c-2.98,1.02-5.91,2.12-8.94,3.03l-9.07,2.7l-2.27,0.67l-2.3,0.59l-4.6,1.16c-3.08,0.74-6.11,1.62-9.24,2.19l-9.33,1.85
			c-3.11,0.6-6.28,1-9.41,1.5l-4.71,0.71c-1.56,0.25-3.16,0.36-4.74,0.55l-9.48,0.92c-3.09,0.23-6.11,0.4-9.14,0.58
			c-24.04,1.16-46.15,0.31-66.82,0.76c-2.55,0.08-5.14,0.12-7.66,0.23c-2.49,0.13-5.07,0.2-7.51,0.38
			c-2.47,0.15-4.96,0.28-7.36,0.53l-3.64,0.32l-3.56,0.43c-2.37,0.25-4.78,0.64-7.19,1c-2.43,0.33-4.79,0.84-7.21,1.25
			c-1.19,0.23-2.43,0.41-3.59,0.67l-3.43,0.79l-3.45,0.76c-1.14,0.27-2.24,0.62-3.36,0.92c-17.99,4.89-34.3,13.04-47.82,25.61
			l-2.46,2.44c-0.81,0.83-1.69,1.61-2.43,2.5c-1.53,1.75-3.16,3.46-4.59,5.35l-2.23,2.79l-2.08,2.94l-1.05,1.48
			c-0.34,0.5-0.65,1.02-0.98,1.53l-1.98,3.09c-5.09,8.39-9.26,17.73-12.67,27.63C240.7,436.75,237.4,458.7,235.88,481.29z"/>
	</g>
</g>
</svg>
